<mxfile host="65bd71144e">
    <diagram name="Page-1" id="RP7NiGy_2naLxJwXn2JH">
        <mxGraphModel dx="1321" dy="1513" grid="0" gridSize="10" guides="0" tooltips="1" connect="1" arrows="1" fold="1" page="0" pageScale="1" pageWidth="827" pageHeight="1169" math="0" shadow="0">
            <root>
                <mxCell id="0"/>
                <mxCell id="1" parent="0"/>
                <mxCell id="Y01jiLZtxqPpPeRmWfsf-43" value="WateringHandler" style="swimlane;fontStyle=1;align=center;verticalAlign=top;childLayout=stackLayout;horizontal=1;startSize=26;horizontalStack=0;resizeParent=1;resizeParentMax=0;resizeLast=0;collapsible=1;marginBottom=0;whiteSpace=wrap;html=1;fillColor=#f0a30a;fontColor=#000000;strokeColor=#BD7000;rounded=1;spacingLeft=4;spacingRight=4;fontFamily=Helvetica;fontSize=12;" parent="1" vertex="1">
                    <mxGeometry x="365" y="905" width="310" height="70" as="geometry"/>
                </mxCell>
                <mxCell id="Y01jiLZtxqPpPeRmWfsf-45" value="" style="line;strokeWidth=1;fillColor=none;align=left;verticalAlign=middle;spacingTop=-1;spacingLeft=3;spacingRight=3;rotatable=0;labelPosition=right;points=[];portConstraint=eastwest;strokeColor=inherit;rounded=0;fontFamily=Helvetica;fontSize=12;fontColor=default;" parent="Y01jiLZtxqPpPeRmWfsf-43" vertex="1">
                    <mxGeometry y="26" width="310" height="8" as="geometry"/>
                </mxCell>
                <mxCell id="Y01jiLZtxqPpPeRmWfsf-46" value="+careForPlant (careHandler request)::void" style="text;align=left;verticalAlign=top;spacingLeft=4;spacingRight=4;overflow=hidden;rotatable=0;points=[[0,0.5],[1,0.5]];portConstraint=eastwest;whiteSpace=wrap;html=1;fillColor=#f9f7ed;strokeColor=#36393d;rounded=0;fontFamily=Helvetica;fontSize=12;fontColor=default;" parent="Y01jiLZtxqPpPeRmWfsf-43" vertex="1">
                    <mxGeometry y="34" width="310" height="36" as="geometry"/>
                </mxCell>
                <mxCell id="Y01jiLZtxqPpPeRmWfsf-50" value="LightHandler" style="swimlane;fontStyle=1;align=center;verticalAlign=top;childLayout=stackLayout;horizontal=1;startSize=26;horizontalStack=0;resizeParent=1;resizeParentMax=0;resizeLast=0;collapsible=1;marginBottom=0;whiteSpace=wrap;html=1;fillColor=#f0a30a;fontColor=#000000;strokeColor=#BD7000;rounded=1;spacingLeft=4;spacingRight=4;fontFamily=Helvetica;fontSize=12;" parent="1" vertex="1">
                    <mxGeometry x="1085" y="905" width="310" height="70" as="geometry"/>
                </mxCell>
                <mxCell id="Y01jiLZtxqPpPeRmWfsf-51" value="" style="line;strokeWidth=1;fillColor=none;align=left;verticalAlign=middle;spacingTop=-1;spacingLeft=3;spacingRight=3;rotatable=0;labelPosition=right;points=[];portConstraint=eastwest;strokeColor=inherit;rounded=0;fontFamily=Helvetica;fontSize=12;fontColor=default;" parent="Y01jiLZtxqPpPeRmWfsf-50" vertex="1">
                    <mxGeometry y="26" width="310" height="8" as="geometry"/>
                </mxCell>
                <mxCell id="Y01jiLZtxqPpPeRmWfsf-52" value="+careForPlant (careHandler request)::void" style="text;align=left;verticalAlign=top;spacingLeft=4;spacingRight=4;overflow=hidden;rotatable=0;points=[[0,0.5],[1,0.5]];portConstraint=eastwest;whiteSpace=wrap;html=1;fillColor=#f9f7ed;strokeColor=#36393d;rounded=0;fontFamily=Helvetica;fontSize=12;fontColor=default;" parent="Y01jiLZtxqPpPeRmWfsf-50" vertex="1">
                    <mxGeometry y="34" width="310" height="36" as="geometry"/>
                </mxCell>
                <mxCell id="YPLfKWgZtxqnr_miqKOz-14" value="" style="edgeStyle=orthogonalEdgeStyle;rounded=0;orthogonalLoop=1;jettySize=auto;html=1;endArrow=none;endFill=1;startArrow=block;startFill=0;strokeWidth=2;endSize=12;startSize=12;targetPerimeterSpacing=0;" parent="1" source="YPLfKWgZtxqnr_miqKOz-10" target="YPLfKWgZtxqnr_miqKOz-6" edge="1">
                    <mxGeometry relative="1" as="geometry"/>
                </mxCell>
                <mxCell id="48" style="edgeStyle=orthogonalEdgeStyle;html=1;exitX=1;exitY=1;exitDx=0;exitDy=0;entryX=0.5;entryY=1;entryDx=0;entryDy=0;rounded=0;strokeColor=default;strokeWidth=2;align=center;verticalAlign=middle;fontFamily=Helvetica;fontSize=11;fontColor=default;labelBackgroundColor=default;startArrow=none;startFill=0;startSize=12;endArrow=classicThin;endFill=1;endSize=13;" edge="1" parent="1" source="YPLfKWgZtxqnr_miqKOz-6" target="44">
                    <mxGeometry relative="1" as="geometry"/>
                </mxCell>
                <mxCell id="YPLfKWgZtxqnr_miqKOz-6" value="Plant" style="swimlane;fontStyle=1;align=center;verticalAlign=top;childLayout=stackLayout;horizontal=1;startSize=26;horizontalStack=0;resizeParent=1;resizeParentMax=0;resizeLast=0;collapsible=1;marginBottom=0;whiteSpace=wrap;html=1;fillColor=#60a917;fontColor=#ffffff;strokeColor=#2D7600;rounded=1;shadow=0;glass=0;" parent="1" vertex="1">
                    <mxGeometry x="40" y="210" width="230" height="270" as="geometry">
                        <mxRectangle x="370" y="180" width="100" height="30" as="alternateBounds"/>
                    </mxGeometry>
                </mxCell>
                <mxCell id="YPLfKWgZtxqnr_miqKOz-7" value="&lt;div&gt;+ enum Category&lt;/div&gt;&lt;div&gt;-string name&lt;/div&gt;&lt;div&gt;-Category category&lt;/div&gt;&lt;div&gt;-float sunHoursNeeded&lt;/div&gt;&lt;div&gt;-float wateringNeeds&lt;/div&gt;&lt;div&gt;-float temperatureNeeds&lt;/div&gt;&lt;div&gt;-Map sensors&lt;/div&gt;" style="text;align=left;verticalAlign=top;spacingLeft=4;spacingRight=4;overflow=hidden;rotatable=0;points=[[0,0.5],[1,0.5]];portConstraint=eastwest;whiteSpace=wrap;html=1;fillColor=#f9f7ed;strokeColor=#36393d;" parent="YPLfKWgZtxqnr_miqKOz-6" vertex="1">
                    <mxGeometry y="26" width="230" height="110" as="geometry"/>
                </mxCell>
                <mxCell id="YPLfKWgZtxqnr_miqKOz-8" value="" style="line;strokeWidth=1;fillColor=none;align=left;verticalAlign=middle;spacingTop=-1;spacingLeft=3;spacingRight=3;rotatable=0;labelPosition=right;points=[];portConstraint=eastwest;strokeColor=inherit;" parent="YPLfKWgZtxqnr_miqKOz-6" vertex="1">
                    <mxGeometry y="136" width="230" height="8" as="geometry"/>
                </mxCell>
                <mxCell id="YPLfKWgZtxqnr_miqKOz-9" value="&lt;div&gt;+void connectSensors()&lt;/div&gt;&lt;div&gt;+string showDetails ()&lt;/div&gt;&lt;div&gt;+String getName()&lt;/div&gt;+float readSensor(String sensor)&lt;div&gt;+float getSunHoursNeeded()&lt;/div&gt;&lt;div&gt;+float getWateringNeeds()&lt;/div&gt;&lt;div&gt;+float getTemperatureNeeds()&lt;/div&gt;&lt;div&gt;+void printDetails()&lt;/div&gt;" style="text;align=left;verticalAlign=top;spacingLeft=4;spacingRight=4;overflow=hidden;rotatable=0;points=[[0,0.5],[1,0.5]];portConstraint=eastwest;whiteSpace=wrap;html=1;fillColor=#f9f7ed;strokeColor=#36393d;" parent="YPLfKWgZtxqnr_miqKOz-6" vertex="1">
                    <mxGeometry y="144" width="230" height="126" as="geometry"/>
                </mxCell>
                <mxCell id="38" style="edgeStyle=orthogonalEdgeStyle;html=1;exitX=0.75;exitY=1;exitDx=0;exitDy=0;entryX=0.25;entryY=0;entryDx=0;entryDy=0;fontFamily=Helvetica;fontSize=11;fontColor=default;rounded=0;strokeColor=default;strokeWidth=2;align=center;verticalAlign=middle;labelBackgroundColor=default;startArrow=none;startFill=0;startSize=12;endArrow=diamondThin;endFill=0;endSize=13;" parent="1" source="YPLfKWgZtxqnr_miqKOz-10" target="Y01jiLZtxqPpPeRmWfsf-1" edge="1">
                    <mxGeometry relative="1" as="geometry"/>
                </mxCell>
                <mxCell id="YPLfKWgZtxqnr_miqKOz-10" value="interface - House" style="swimlane;fontStyle=1;align=center;verticalAlign=top;childLayout=stackLayout;horizontal=1;startSize=26;horizontalStack=0;resizeParent=1;resizeParentMax=0;resizeLast=0;collapsible=1;marginBottom=0;whiteSpace=wrap;html=1;fillColor=#60a917;fontColor=#ffffff;strokeColor=#2D7600;rounded=1;shadow=0;glass=0;" parent="1" vertex="1">
                    <mxGeometry x="250" y="50" width="340" height="90" as="geometry">
                        <mxRectangle x="370" y="180" width="100" height="30" as="alternateBounds"/>
                    </mxGeometry>
                </mxCell>
                <mxCell id="YPLfKWgZtxqnr_miqKOz-12" value="" style="line;strokeWidth=1;fillColor=none;align=left;verticalAlign=middle;spacingTop=-1;spacingLeft=3;spacingRight=3;rotatable=0;labelPosition=right;points=[];portConstraint=eastwest;strokeColor=inherit;" parent="YPLfKWgZtxqnr_miqKOz-10" vertex="1">
                    <mxGeometry y="26" width="340" height="8" as="geometry"/>
                </mxCell>
                <mxCell id="YPLfKWgZtxqnr_miqKOz-13" value="&lt;div&gt;+showDetails ()::string&lt;/div&gt;&lt;div&gt;+getName()::string&lt;/div&gt;&lt;div&gt;+void printDetails()&lt;/div&gt;" style="text;align=left;verticalAlign=top;spacingLeft=4;spacingRight=4;overflow=hidden;rotatable=0;points=[[0,0.5],[1,0.5]];portConstraint=eastwest;whiteSpace=wrap;html=1;fillColor=#f9f7ed;strokeColor=#36393d;" parent="YPLfKWgZtxqnr_miqKOz-10" vertex="1">
                    <mxGeometry y="34" width="340" height="56" as="geometry"/>
                </mxCell>
                <mxCell id="30" style="edgeStyle=orthogonalEdgeStyle;shape=connector;rounded=0;html=1;exitX=0.75;exitY=0;exitDx=0;exitDy=0;entryX=0;entryY=0.5;entryDx=0;entryDy=0;strokeColor=default;strokeWidth=2;align=center;verticalAlign=middle;fontFamily=Helvetica;fontSize=11;fontColor=default;labelBackgroundColor=default;startArrow=classic;startFill=1;startSize=12;endArrow=none;endFill=0;endSize=13;" parent="1" source="YPLfKWgZtxqnr_miqKOz-10" target="10" edge="1">
                    <mxGeometry relative="1" as="geometry"/>
                </mxCell>
                <mxCell id="31" value="Creates" style="edgeLabel;html=1;align=center;verticalAlign=middle;resizable=0;points=[];fontFamily=Helvetica;fontSize=11;fontColor=default;labelBackgroundColor=default;" parent="30" vertex="1" connectable="0">
                    <mxGeometry x="-0.124" y="1" relative="1" as="geometry">
                        <mxPoint as="offset"/>
                    </mxGeometry>
                </mxCell>
                <mxCell id="49" style="edgeStyle=orthogonalEdgeStyle;html=1;exitX=1;exitY=1;exitDx=0;exitDy=0;entryX=0.25;entryY=1;entryDx=0;entryDy=0;rounded=0;strokeColor=default;strokeWidth=2;align=center;verticalAlign=middle;fontFamily=Helvetica;fontSize=11;fontColor=default;labelBackgroundColor=default;startArrow=none;startFill=0;startSize=12;endArrow=classicThin;endFill=1;endSize=13;" edge="1" parent="1" source="Y01jiLZtxqPpPeRmWfsf-1" target="44">
                    <mxGeometry relative="1" as="geometry"/>
                </mxCell>
                <mxCell id="Y01jiLZtxqPpPeRmWfsf-1" value="Location" style="swimlane;fontStyle=1;align=center;verticalAlign=top;childLayout=stackLayout;horizontal=1;startSize=26;horizontalStack=0;resizeParent=1;resizeParentMax=0;resizeLast=0;collapsible=1;marginBottom=0;whiteSpace=wrap;html=1;fillColor=#60a917;fontColor=#ffffff;strokeColor=#2D7600;rounded=1;" parent="1" vertex="1">
                    <mxGeometry x="620" y="210" width="230" height="220" as="geometry"/>
                </mxCell>
                <mxCell id="Y01jiLZtxqPpPeRmWfsf-2" value="&lt;div&gt;-boolean isIndoor&lt;/div&gt;&lt;div&gt;-string name&lt;/div&gt;&lt;div&gt;-string sunExposure&lt;/div&gt;&lt;div&gt;-list children&lt;/div&gt;" style="text;align=left;verticalAlign=top;spacingLeft=4;spacingRight=4;overflow=hidden;rotatable=0;points=[[0,0.5],[1,0.5]];portConstraint=eastwest;whiteSpace=wrap;html=1;fillColor=#f9f7ed;strokeColor=#36393d;" parent="Y01jiLZtxqPpPeRmWfsf-1" vertex="1">
                    <mxGeometry y="26" width="230" height="74" as="geometry"/>
                </mxCell>
                <mxCell id="Y01jiLZtxqPpPeRmWfsf-3" value="" style="line;strokeWidth=1;fillColor=none;align=left;verticalAlign=middle;spacingTop=-1;spacingLeft=3;spacingRight=3;rotatable=0;labelPosition=right;points=[];portConstraint=eastwest;strokeColor=inherit;" parent="Y01jiLZtxqPpPeRmWfsf-1" vertex="1">
                    <mxGeometry y="100" width="230" height="8" as="geometry"/>
                </mxCell>
                <mxCell id="Y01jiLZtxqPpPeRmWfsf-4" value="&lt;div&gt;+showDetails ()::string&lt;/div&gt;&lt;div&gt;+getName ()::string&lt;/div&gt;&lt;div&gt;+addComponent ()::void&lt;/div&gt;&lt;div&gt;+removeComponent ()::void&lt;/div&gt;&lt;div&gt;+showChildren()::void&lt;/div&gt;&lt;div&gt;+void printDetails()&lt;/div&gt;&lt;div&gt;+void printChildren()&lt;/div&gt;" style="text;align=left;verticalAlign=top;spacingLeft=4;spacingRight=4;overflow=hidden;rotatable=0;points=[[0,0.5],[1,0.5]];portConstraint=eastwest;whiteSpace=wrap;html=1;fillColor=#f9f7ed;strokeColor=#36393d;rounded=0;" parent="Y01jiLZtxqPpPeRmWfsf-1" vertex="1">
                    <mxGeometry y="108" width="230" height="112" as="geometry"/>
                </mxCell>
                <mxCell id="Y01jiLZtxqPpPeRmWfsf-31" style="edgeStyle=orthogonalEdgeStyle;shape=connector;rounded=0;orthogonalLoop=1;jettySize=auto;html=1;exitX=0.239;exitY=1;exitDx=0;exitDy=0;entryX=0.5;entryY=0;entryDx=0;entryDy=0;strokeColor=default;strokeWidth=2;align=center;verticalAlign=middle;fontFamily=Helvetica;fontSize=12;fontColor=default;fontStyle=1;labelBackgroundColor=default;horizontal=1;startArrow=block;startFill=0;startSize=12;endArrow=none;endFill=1;endSize=12;targetPerimeterSpacing=0;exitPerimeter=0;" parent="1" source="Y01jiLZtxqPpPeRmWfsf-20" target="Y01jiLZtxqPpPeRmWfsf-21" edge="1">
                    <mxGeometry relative="1" as="geometry"/>
                </mxCell>
                <mxCell id="Y01jiLZtxqPpPeRmWfsf-33" style="edgeStyle=orthogonalEdgeStyle;shape=connector;rounded=0;orthogonalLoop=1;jettySize=auto;html=1;exitX=0.5;exitY=1;exitDx=0;exitDy=0;entryX=0.5;entryY=0;entryDx=0;entryDy=0;strokeColor=default;strokeWidth=2;align=center;verticalAlign=middle;fontFamily=Helvetica;fontSize=12;fontColor=default;fontStyle=1;labelBackgroundColor=default;horizontal=1;startArrow=block;startFill=0;startSize=12;endArrow=none;endFill=1;endSize=12;targetPerimeterSpacing=0;" parent="1" source="Y01jiLZtxqPpPeRmWfsf-17" target="Y01jiLZtxqPpPeRmWfsf-25" edge="1">
                    <mxGeometry relative="1" as="geometry"/>
                </mxCell>
                <mxCell id="Y01jiLZtxqPpPeRmWfsf-34" style="edgeStyle=orthogonalEdgeStyle;shape=connector;rounded=0;orthogonalLoop=1;jettySize=auto;html=1;exitX=0.75;exitY=1;exitDx=0;exitDy=0;entryX=0.5;entryY=0;entryDx=0;entryDy=0;strokeColor=default;strokeWidth=2;align=center;verticalAlign=middle;fontFamily=Helvetica;fontSize=12;fontColor=default;fontStyle=1;labelBackgroundColor=default;horizontal=1;startArrow=block;startFill=0;startSize=12;endArrow=none;endFill=1;endSize=12;targetPerimeterSpacing=0;" parent="1" source="Y01jiLZtxqPpPeRmWfsf-17" target="Y01jiLZtxqPpPeRmWfsf-28" edge="1">
                    <mxGeometry relative="1" as="geometry"/>
                </mxCell>
                <mxCell id="Y01jiLZtxqPpPeRmWfsf-82" style="edgeStyle=orthogonalEdgeStyle;shape=connector;rounded=0;orthogonalLoop=1;jettySize=auto;html=1;exitX=0;exitY=0.5;exitDx=0;exitDy=0;entryX=0.5;entryY=0;entryDx=0;entryDy=0;strokeColor=default;strokeWidth=2;align=center;verticalAlign=middle;fontFamily=Helvetica;fontSize=12;fontColor=default;fontStyle=1;labelBackgroundColor=default;horizontal=1;startArrow=block;startFill=0;startSize=12;endArrow=none;endFill=1;endSize=12;targetPerimeterSpacing=0;" parent="1" source="Y01jiLZtxqPpPeRmWfsf-20" target="Y01jiLZtxqPpPeRmWfsf-79" edge="1">
                    <mxGeometry relative="1" as="geometry"/>
                </mxCell>
                <mxCell id="5" style="edgeStyle=orthogonalEdgeStyle;shape=connector;rounded=0;html=1;exitX=0.5;exitY=0;exitDx=0;exitDy=0;strokeColor=default;strokeWidth=2;align=center;verticalAlign=middle;fontFamily=Helvetica;fontSize=12;fontColor=default;fontStyle=1;labelBackgroundColor=default;startArrow=open;startFill=0;startSize=12;endArrow=none;endFill=1;endSize=12;targetPerimeterSpacing=0;" parent="1" source="Y01jiLZtxqPpPeRmWfsf-17" target="YPLfKWgZtxqnr_miqKOz-6" edge="1">
                    <mxGeometry relative="1" as="geometry"/>
                </mxCell>
                <mxCell id="Y01jiLZtxqPpPeRmWfsf-17" value="interface - Sensor" style="swimlane;fontStyle=1;align=center;verticalAlign=top;childLayout=stackLayout;horizontal=1;startSize=26;horizontalStack=0;resizeParent=1;resizeParentMax=0;resizeLast=0;collapsible=1;marginBottom=0;whiteSpace=wrap;html=1;fillColor=#76608a;strokeColor=#432D57;rounded=1;fontColor=#ffffff;" parent="1" vertex="1">
                    <mxGeometry x="-180" y="550" width="230" height="70" as="geometry"/>
                </mxCell>
                <mxCell id="Y01jiLZtxqPpPeRmWfsf-19" value="" style="line;strokeWidth=1;fillColor=none;align=left;verticalAlign=middle;spacingTop=-1;spacingLeft=3;spacingRight=3;rotatable=0;labelPosition=right;points=[];portConstraint=eastwest;strokeColor=inherit;" parent="Y01jiLZtxqPpPeRmWfsf-17" vertex="1">
                    <mxGeometry y="26" width="230" height="8" as="geometry"/>
                </mxCell>
                <mxCell id="Y01jiLZtxqPpPeRmWfsf-20" value="+readValue ()::float" style="text;align=left;verticalAlign=top;spacingLeft=4;spacingRight=4;overflow=hidden;rotatable=0;points=[[0,0.5],[1,0.5]];portConstraint=eastwest;whiteSpace=wrap;html=1;fillColor=#f9f7ed;strokeColor=#36393d;rounded=0;" parent="Y01jiLZtxqPpPeRmWfsf-17" vertex="1">
                    <mxGeometry y="34" width="230" height="36" as="geometry"/>
                </mxCell>
                <mxCell id="Y01jiLZtxqPpPeRmWfsf-21" value="Hygrometer" style="swimlane;fontStyle=1;align=center;verticalAlign=top;childLayout=stackLayout;horizontal=1;startSize=26;horizontalStack=0;resizeParent=1;resizeParentMax=0;resizeLast=0;collapsible=1;marginBottom=0;whiteSpace=wrap;html=1;fillColor=#76608a;strokeColor=#432D57;rounded=1;spacingLeft=4;spacingRight=4;fontFamily=Helvetica;fontSize=12;fontColor=#ffffff;" parent="1" vertex="1">
                    <mxGeometry x="-440" y="670" width="230" height="70" as="geometry"/>
                </mxCell>
                <mxCell id="Y01jiLZtxqPpPeRmWfsf-23" value="" style="line;strokeWidth=1;fillColor=none;align=left;verticalAlign=middle;spacingTop=-1;spacingLeft=3;spacingRight=3;rotatable=0;labelPosition=right;points=[];portConstraint=eastwest;strokeColor=inherit;rounded=0;fontFamily=Helvetica;fontSize=12;fontColor=default;" parent="Y01jiLZtxqPpPeRmWfsf-21" vertex="1">
                    <mxGeometry y="26" width="230" height="8" as="geometry"/>
                </mxCell>
                <mxCell id="Y01jiLZtxqPpPeRmWfsf-24" value="+readValue()::float" style="text;align=left;verticalAlign=top;spacingLeft=4;spacingRight=4;overflow=hidden;rotatable=0;points=[[0,0.5],[1,0.5]];portConstraint=eastwest;whiteSpace=wrap;html=1;fillColor=#f9f7ed;strokeColor=#36393d;rounded=0;fontFamily=Helvetica;fontSize=12;fontColor=default;" parent="Y01jiLZtxqPpPeRmWfsf-21" vertex="1">
                    <mxGeometry y="34" width="230" height="36" as="geometry"/>
                </mxCell>
                <mxCell id="Y01jiLZtxqPpPeRmWfsf-25" value="Thermometer" style="swimlane;fontStyle=1;align=center;verticalAlign=top;childLayout=stackLayout;horizontal=1;startSize=26;horizontalStack=0;resizeParent=1;resizeParentMax=0;resizeLast=0;collapsible=1;marginBottom=0;whiteSpace=wrap;html=1;fillColor=#76608a;strokeColor=#432D57;rounded=1;spacingLeft=4;spacingRight=4;fontFamily=Helvetica;fontSize=12;fontColor=#ffffff;" parent="1" vertex="1">
                    <mxGeometry x="-180" y="670" width="230" height="70" as="geometry"/>
                </mxCell>
                <mxCell id="Y01jiLZtxqPpPeRmWfsf-26" value="" style="line;strokeWidth=1;fillColor=none;align=left;verticalAlign=middle;spacingTop=-1;spacingLeft=3;spacingRight=3;rotatable=0;labelPosition=right;points=[];portConstraint=eastwest;strokeColor=inherit;rounded=0;fontFamily=Helvetica;fontSize=12;fontColor=default;" parent="Y01jiLZtxqPpPeRmWfsf-25" vertex="1">
                    <mxGeometry y="26" width="230" height="8" as="geometry"/>
                </mxCell>
                <mxCell id="Y01jiLZtxqPpPeRmWfsf-27" value="+readValue()::float" style="text;align=left;verticalAlign=top;spacingLeft=4;spacingRight=4;overflow=hidden;rotatable=0;points=[[0,0.5],[1,0.5]];portConstraint=eastwest;whiteSpace=wrap;html=1;fillColor=#f9f7ed;strokeColor=#36393d;rounded=0;fontFamily=Helvetica;fontSize=12;fontColor=default;" parent="Y01jiLZtxqPpPeRmWfsf-25" vertex="1">
                    <mxGeometry y="34" width="230" height="36" as="geometry"/>
                </mxCell>
                <mxCell id="Y01jiLZtxqPpPeRmWfsf-28" value="Photometer" style="swimlane;fontStyle=1;align=center;verticalAlign=top;childLayout=stackLayout;horizontal=1;startSize=26;horizontalStack=0;resizeParent=1;resizeParentMax=0;resizeLast=0;collapsible=1;marginBottom=0;whiteSpace=wrap;html=1;fillColor=#76608a;strokeColor=#432D57;rounded=1;spacingLeft=4;spacingRight=4;fontFamily=Helvetica;fontSize=12;fontColor=#ffffff;" parent="1" vertex="1">
                    <mxGeometry x="79" y="670" width="230" height="70" as="geometry"/>
                </mxCell>
                <mxCell id="Y01jiLZtxqPpPeRmWfsf-29" value="" style="line;strokeWidth=1;fillColor=none;align=left;verticalAlign=middle;spacingTop=-1;spacingLeft=3;spacingRight=3;rotatable=0;labelPosition=right;points=[];portConstraint=eastwest;strokeColor=inherit;rounded=0;fontFamily=Helvetica;fontSize=12;fontColor=default;" parent="Y01jiLZtxqPpPeRmWfsf-28" vertex="1">
                    <mxGeometry y="26" width="230" height="8" as="geometry"/>
                </mxCell>
                <mxCell id="Y01jiLZtxqPpPeRmWfsf-30" value="+readValue()::float" style="text;align=left;verticalAlign=top;spacingLeft=4;spacingRight=4;overflow=hidden;rotatable=0;points=[[0,0.5],[1,0.5]];portConstraint=eastwest;whiteSpace=wrap;html=1;fillColor=#f9f7ed;strokeColor=#36393d;rounded=0;fontFamily=Helvetica;fontSize=12;fontColor=default;" parent="Y01jiLZtxqPpPeRmWfsf-28" vertex="1">
                    <mxGeometry y="34" width="230" height="36" as="geometry"/>
                </mxCell>
                <mxCell id="Y01jiLZtxqPpPeRmWfsf-53" style="edgeStyle=orthogonalEdgeStyle;shape=connector;rounded=0;orthogonalLoop=1;jettySize=auto;html=1;exitX=0.25;exitY=1;exitDx=0;exitDy=0;entryX=0.5;entryY=0;entryDx=0;entryDy=0;strokeColor=default;strokeWidth=2;align=center;verticalAlign=middle;fontFamily=Helvetica;fontSize=12;fontColor=default;fontStyle=1;labelBackgroundColor=default;horizontal=1;startArrow=block;startFill=0;startSize=12;endArrow=none;endFill=1;endSize=12;targetPerimeterSpacing=0;" parent="1" source="Y01jiLZtxqPpPeRmWfsf-39" target="Y01jiLZtxqPpPeRmWfsf-43" edge="1">
                    <mxGeometry relative="1" as="geometry"/>
                </mxCell>
                <mxCell id="Y01jiLZtxqPpPeRmWfsf-54" style="edgeStyle=orthogonalEdgeStyle;shape=connector;rounded=0;orthogonalLoop=1;jettySize=auto;html=1;exitX=0.5;exitY=1;exitDx=0;exitDy=0;entryX=0.5;entryY=0;entryDx=0;entryDy=0;strokeColor=default;strokeWidth=2;align=center;verticalAlign=middle;fontFamily=Helvetica;fontSize=12;fontColor=default;fontStyle=1;labelBackgroundColor=default;horizontal=1;startArrow=block;startFill=0;startSize=12;endArrow=none;endFill=1;endSize=12;targetPerimeterSpacing=0;" parent="1" source="Y01jiLZtxqPpPeRmWfsf-39" target="Y01jiLZtxqPpPeRmWfsf-47" edge="1">
                    <mxGeometry relative="1" as="geometry"/>
                </mxCell>
                <mxCell id="Y01jiLZtxqPpPeRmWfsf-55" style="edgeStyle=orthogonalEdgeStyle;shape=connector;rounded=0;orthogonalLoop=1;jettySize=auto;html=1;exitX=0.75;exitY=1;exitDx=0;exitDy=0;entryX=0.5;entryY=0;entryDx=0;entryDy=0;strokeColor=default;strokeWidth=2;align=center;verticalAlign=middle;fontFamily=Helvetica;fontSize=12;fontColor=default;fontStyle=1;labelBackgroundColor=default;horizontal=1;startArrow=block;startFill=0;startSize=12;endArrow=none;endFill=1;endSize=12;targetPerimeterSpacing=0;" parent="1" source="Y01jiLZtxqPpPeRmWfsf-39" target="Y01jiLZtxqPpPeRmWfsf-50" edge="1">
                    <mxGeometry relative="1" as="geometry"/>
                </mxCell>
                <mxCell id="6" style="edgeStyle=orthogonalEdgeStyle;shape=connector;rounded=0;html=1;exitX=0.5;exitY=0;exitDx=0;exitDy=0;strokeColor=default;strokeWidth=2;align=center;verticalAlign=middle;fontFamily=Helvetica;fontSize=12;fontColor=default;fontStyle=1;labelBackgroundColor=default;startArrow=open;startFill=0;startSize=12;endArrow=none;endFill=1;endSize=12;targetPerimeterSpacing=0;" parent="1" source="Y01jiLZtxqPpPeRmWfsf-39" target="YPLfKWgZtxqnr_miqKOz-6" edge="1">
                    <mxGeometry relative="1" as="geometry">
                        <Array as="points">
                            <mxPoint x="880" y="545"/>
                            <mxPoint x="155" y="545"/>
                        </Array>
                    </mxGeometry>
                </mxCell>
                <mxCell id="8" style="edgeStyle=orthogonalEdgeStyle;shape=connector;rounded=0;html=1;strokeColor=default;strokeWidth=2;align=center;verticalAlign=middle;fontFamily=Helvetica;fontSize=12;fontColor=default;fontStyle=1;labelBackgroundColor=default;startArrow=none;startFill=0;startSize=12;endArrow=open;endFill=0;endSize=12;targetPerimeterSpacing=0;jumpStyle=none;entryX=1;entryY=0.5;entryDx=0;entryDy=0;" parent="1" source="Y01jiLZtxqPpPeRmWfsf-39" target="Y01jiLZtxqPpPeRmWfsf-17" edge="1">
                    <mxGeometry relative="1" as="geometry">
                        <mxPoint x="457" y="628" as="targetPoint"/>
                    </mxGeometry>
                </mxCell>
                <mxCell id="Y01jiLZtxqPpPeRmWfsf-39" value="interface CareHandler" style="swimlane;fontStyle=1;align=center;verticalAlign=top;childLayout=stackLayout;horizontal=1;startSize=26;horizontalStack=0;resizeParent=1;resizeParentMax=0;resizeLast=0;collapsible=1;marginBottom=0;whiteSpace=wrap;html=1;fillColor=#f0a30a;fontColor=#000000;strokeColor=#BD7000;rounded=1;spacingLeft=4;spacingRight=4;fontFamily=Helvetica;fontSize=12;" parent="1" vertex="1">
                    <mxGeometry x="730" y="725" width="300" height="86" as="geometry"/>
                </mxCell>
                <mxCell id="Y01jiLZtxqPpPeRmWfsf-41" value="" style="line;strokeWidth=1;fillColor=none;align=left;verticalAlign=middle;spacingTop=-1;spacingLeft=3;spacingRight=3;rotatable=0;labelPosition=right;points=[];portConstraint=eastwest;strokeColor=inherit;rounded=0;fontFamily=Helvetica;fontSize=12;fontColor=default;" parent="Y01jiLZtxqPpPeRmWfsf-39" vertex="1">
                    <mxGeometry y="26" width="300" height="8" as="geometry"/>
                </mxCell>
                <mxCell id="Y01jiLZtxqPpPeRmWfsf-42" value="&lt;div&gt;+setNextStep (Carehandler nextStep)::void&lt;/div&gt;&lt;div&gt;+careForPlant(careHandler request)::abstract void&lt;/div&gt;" style="text;align=left;verticalAlign=top;spacingLeft=4;spacingRight=4;overflow=hidden;rotatable=0;points=[[0,0.5],[1,0.5]];portConstraint=eastwest;whiteSpace=wrap;html=1;fillColor=#f9f7ed;strokeColor=#36393d;rounded=0;fontFamily=Helvetica;fontSize=12;fontColor=default;" parent="Y01jiLZtxqPpPeRmWfsf-39" vertex="1">
                    <mxGeometry y="34" width="300" height="52" as="geometry"/>
                </mxCell>
                <mxCell id="Y01jiLZtxqPpPeRmWfsf-47" value="TemperatureHandler" style="swimlane;fontStyle=1;align=center;verticalAlign=top;childLayout=stackLayout;horizontal=1;startSize=26;horizontalStack=0;resizeParent=1;resizeParentMax=0;resizeLast=0;collapsible=1;marginBottom=0;whiteSpace=wrap;html=1;fillColor=#f0a30a;fontColor=#000000;strokeColor=#BD7000;rounded=1;spacingLeft=4;spacingRight=4;fontFamily=Helvetica;fontSize=12;" parent="1" vertex="1">
                    <mxGeometry x="725" y="905" width="310" height="70" as="geometry"/>
                </mxCell>
                <mxCell id="Y01jiLZtxqPpPeRmWfsf-48" value="" style="line;strokeWidth=1;fillColor=none;align=left;verticalAlign=middle;spacingTop=-1;spacingLeft=3;spacingRight=3;rotatable=0;labelPosition=right;points=[];portConstraint=eastwest;strokeColor=inherit;rounded=0;fontFamily=Helvetica;fontSize=12;fontColor=default;" parent="Y01jiLZtxqPpPeRmWfsf-47" vertex="1">
                    <mxGeometry y="26" width="310" height="8" as="geometry"/>
                </mxCell>
                <mxCell id="Y01jiLZtxqPpPeRmWfsf-49" value="+careForPlant (careHandler request)::void" style="text;align=left;verticalAlign=top;spacingLeft=4;spacingRight=4;overflow=hidden;rotatable=0;points=[[0,0.5],[1,0.5]];portConstraint=eastwest;whiteSpace=wrap;html=1;fillColor=#f9f7ed;strokeColor=#36393d;rounded=0;fontFamily=Helvetica;fontSize=12;fontColor=default;" parent="Y01jiLZtxqPpPeRmWfsf-47" vertex="1">
                    <mxGeometry y="34" width="310" height="36" as="geometry"/>
                </mxCell>
                <mxCell id="Y01jiLZtxqPpPeRmWfsf-85" style="edgeStyle=orthogonalEdgeStyle;shape=connector;rounded=0;orthogonalLoop=1;jettySize=auto;html=1;exitX=0.5;exitY=0;exitDx=0;exitDy=0;strokeColor=default;strokeWidth=2;align=center;verticalAlign=middle;fontFamily=Helvetica;fontSize=12;fontColor=default;fontStyle=1;labelBackgroundColor=default;horizontal=1;startArrow=classic;startFill=1;startSize=12;endArrow=none;endFill=1;endSize=12;targetPerimeterSpacing=0;" parent="1" source="Y01jiLZtxqPpPeRmWfsf-76" target="Y01jiLZtxqPpPeRmWfsf-81" edge="1">
                    <mxGeometry relative="1" as="geometry"/>
                </mxCell>
                <mxCell id="Y01jiLZtxqPpPeRmWfsf-76" value="LegacySensor" style="swimlane;fontStyle=1;align=center;verticalAlign=top;childLayout=stackLayout;horizontal=1;startSize=26;horizontalStack=0;resizeParent=1;resizeParentMax=0;resizeLast=0;collapsible=1;marginBottom=0;whiteSpace=wrap;html=1;fillColor=#76608a;strokeColor=#432D57;rounded=1;spacingLeft=4;spacingRight=4;fontFamily=Helvetica;fontSize=12;fontColor=#ffffff;" parent="1" vertex="1">
                    <mxGeometry x="-700" y="760" width="230" height="70" as="geometry"/>
                </mxCell>
                <mxCell id="Y01jiLZtxqPpPeRmWfsf-77" value="" style="line;strokeWidth=1;fillColor=none;align=left;verticalAlign=middle;spacingTop=-1;spacingLeft=3;spacingRight=3;rotatable=0;labelPosition=right;points=[];portConstraint=eastwest;strokeColor=inherit;rounded=0;fontFamily=Helvetica;fontSize=12;fontColor=default;" parent="Y01jiLZtxqPpPeRmWfsf-76" vertex="1">
                    <mxGeometry y="26" width="230" height="8" as="geometry"/>
                </mxCell>
                <mxCell id="Y01jiLZtxqPpPeRmWfsf-78" value="+valueOfReading()::int" style="text;align=left;verticalAlign=top;spacingLeft=4;spacingRight=4;overflow=hidden;rotatable=0;points=[[0,0.5],[1,0.5]];portConstraint=eastwest;whiteSpace=wrap;html=1;fillColor=#f9f7ed;strokeColor=#36393d;rounded=0;fontFamily=Helvetica;fontSize=12;fontColor=default;" parent="Y01jiLZtxqPpPeRmWfsf-76" vertex="1">
                    <mxGeometry y="34" width="230" height="36" as="geometry"/>
                </mxCell>
                <mxCell id="Y01jiLZtxqPpPeRmWfsf-79" value="SensorAdapter" style="swimlane;fontStyle=1;align=center;verticalAlign=top;childLayout=stackLayout;horizontal=1;startSize=26;horizontalStack=0;resizeParent=1;resizeParentMax=0;resizeLast=0;collapsible=1;marginBottom=0;whiteSpace=wrap;html=1;fillColor=#76608a;strokeColor=#432D57;rounded=1;spacingLeft=4;spacingRight=4;fontFamily=Helvetica;fontSize=12;fontColor=#ffffff;" parent="1" vertex="1">
                    <mxGeometry x="-620" y="570" width="230" height="70" as="geometry"/>
                </mxCell>
                <mxCell id="Y01jiLZtxqPpPeRmWfsf-80" value="" style="line;strokeWidth=1;fillColor=none;align=left;verticalAlign=middle;spacingTop=-1;spacingLeft=3;spacingRight=3;rotatable=0;labelPosition=right;points=[];portConstraint=eastwest;strokeColor=inherit;rounded=0;fontFamily=Helvetica;fontSize=12;fontColor=default;" parent="Y01jiLZtxqPpPeRmWfsf-79" vertex="1">
                    <mxGeometry y="26" width="230" height="8" as="geometry"/>
                </mxCell>
                <mxCell id="Y01jiLZtxqPpPeRmWfsf-81" value="+readValue()::float" style="text;align=left;verticalAlign=top;spacingLeft=4;spacingRight=4;overflow=hidden;rotatable=0;points=[[0,0.5],[1,0.5]];portConstraint=eastwest;whiteSpace=wrap;html=1;fillColor=#f9f7ed;strokeColor=#36393d;rounded=0;fontFamily=Helvetica;fontSize=12;fontColor=default;" parent="Y01jiLZtxqPpPeRmWfsf-79" vertex="1">
                    <mxGeometry y="34" width="230" height="36" as="geometry"/>
                </mxCell>
                <mxCell id="Y01jiLZtxqPpPeRmWfsf-105" style="edgeStyle=orthogonalEdgeStyle;shape=connector;rounded=0;orthogonalLoop=1;jettySize=auto;html=1;exitX=0;exitY=0.75;exitDx=0;exitDy=0;entryX=0.5;entryY=0;entryDx=0;entryDy=0;strokeColor=default;strokeWidth=2;align=center;verticalAlign=middle;fontFamily=Helvetica;fontSize=12;fontColor=default;fontStyle=1;labelBackgroundColor=default;horizontal=1;startArrow=block;startFill=0;startSize=12;endArrow=none;endFill=0;endSize=12;targetPerimeterSpacing=0;" parent="1" source="Y01jiLZtxqPpPeRmWfsf-87" target="Y01jiLZtxqPpPeRmWfsf-90" edge="1">
                    <mxGeometry relative="1" as="geometry"/>
                </mxCell>
                <mxCell id="Y01jiLZtxqPpPeRmWfsf-106" style="edgeStyle=orthogonalEdgeStyle;shape=connector;rounded=0;orthogonalLoop=1;jettySize=auto;html=1;exitX=1;exitY=0.75;exitDx=0;exitDy=0;entryX=0.5;entryY=0;entryDx=0;entryDy=0;strokeColor=default;strokeWidth=2;align=center;verticalAlign=middle;fontFamily=Helvetica;fontSize=12;fontColor=default;fontStyle=1;labelBackgroundColor=default;horizontal=1;startArrow=block;startFill=0;startSize=12;endArrow=none;endFill=1;endSize=12;targetPerimeterSpacing=0;" parent="1" source="Y01jiLZtxqPpPeRmWfsf-87" target="Y01jiLZtxqPpPeRmWfsf-93" edge="1">
                    <mxGeometry relative="1" as="geometry"/>
                </mxCell>
                <mxCell id="7" style="edgeStyle=orthogonalEdgeStyle;shape=connector;rounded=0;html=1;exitX=0.5;exitY=0;exitDx=0;exitDy=0;strokeColor=default;strokeWidth=2;align=center;verticalAlign=middle;fontFamily=Helvetica;fontSize=12;fontColor=default;fontStyle=1;labelBackgroundColor=default;startArrow=classic;startFill=1;startSize=12;endArrow=none;endFill=1;endSize=12;targetPerimeterSpacing=0;" parent="1" source="Y01jiLZtxqPpPeRmWfsf-87" target="Y01jiLZtxqPpPeRmWfsf-43" edge="1">
                    <mxGeometry relative="1" as="geometry"/>
                </mxCell>
                <mxCell id="Y01jiLZtxqPpPeRmWfsf-87" value="interface - Watering" style="swimlane;fontStyle=1;align=center;verticalAlign=top;childLayout=stackLayout;horizontal=1;startSize=26;horizontalStack=0;resizeParent=1;resizeParentMax=0;resizeLast=0;collapsible=1;marginBottom=0;whiteSpace=wrap;html=1;fillColor=#cce5ff;strokeColor=#36393d;rounded=1;spacingLeft=4;spacingRight=4;fontFamily=Helvetica;fontSize=12;" parent="1" vertex="1">
                    <mxGeometry x="740" y="1095" width="230" height="70" as="geometry"/>
                </mxCell>
                <mxCell id="Y01jiLZtxqPpPeRmWfsf-88" value="" style="line;strokeWidth=1;fillColor=none;align=left;verticalAlign=middle;spacingTop=-1;spacingLeft=3;spacingRight=3;rotatable=0;labelPosition=right;points=[];portConstraint=eastwest;strokeColor=inherit;rounded=0;fontFamily=Helvetica;fontSize=12;fontColor=default;" parent="Y01jiLZtxqPpPeRmWfsf-87" vertex="1">
                    <mxGeometry y="26" width="230" height="8" as="geometry"/>
                </mxCell>
                <mxCell id="Y01jiLZtxqPpPeRmWfsf-89" value="+waterPlant ()::void" style="text;align=left;verticalAlign=top;spacingLeft=4;spacingRight=4;overflow=hidden;rotatable=0;points=[[0,0.5],[1,0.5]];portConstraint=eastwest;whiteSpace=wrap;html=1;fillColor=#f9f7ed;strokeColor=#36393d;rounded=0;fontFamily=Helvetica;fontSize=12;fontColor=default;" parent="Y01jiLZtxqPpPeRmWfsf-87" vertex="1">
                    <mxGeometry y="34" width="230" height="36" as="geometry"/>
                </mxCell>
                <mxCell id="Y01jiLZtxqPpPeRmWfsf-90" value="Water" style="swimlane;fontStyle=1;align=center;verticalAlign=top;childLayout=stackLayout;horizontal=1;startSize=26;horizontalStack=0;resizeParent=1;resizeParentMax=0;resizeLast=0;collapsible=1;marginBottom=0;whiteSpace=wrap;html=1;fillColor=#cce5ff;strokeColor=#36393d;rounded=1;spacingLeft=4;spacingRight=4;fontFamily=Helvetica;fontSize=12;" parent="1" vertex="1">
                    <mxGeometry x="510" y="1225" width="230" height="70" as="geometry"/>
                </mxCell>
                <mxCell id="Y01jiLZtxqPpPeRmWfsf-91" value="" style="line;strokeWidth=1;fillColor=none;align=left;verticalAlign=middle;spacingTop=-1;spacingLeft=3;spacingRight=3;rotatable=0;labelPosition=right;points=[];portConstraint=eastwest;strokeColor=inherit;rounded=0;fontFamily=Helvetica;fontSize=12;fontColor=default;" parent="Y01jiLZtxqPpPeRmWfsf-90" vertex="1">
                    <mxGeometry y="26" width="230" height="8" as="geometry"/>
                </mxCell>
                <mxCell id="Y01jiLZtxqPpPeRmWfsf-92" value="+waterPlant ()::void" style="text;align=left;verticalAlign=top;spacingLeft=4;spacingRight=4;overflow=hidden;rotatable=0;points=[[0,0.5],[1,0.5]];portConstraint=eastwest;whiteSpace=wrap;html=1;fillColor=#f9f7ed;strokeColor=#36393d;rounded=0;fontFamily=Helvetica;fontSize=12;fontColor=default;" parent="Y01jiLZtxqPpPeRmWfsf-90" vertex="1">
                    <mxGeometry y="34" width="230" height="36" as="geometry"/>
                </mxCell>
                <mxCell id="Y01jiLZtxqPpPeRmWfsf-107" style="edgeStyle=orthogonalEdgeStyle;shape=connector;rounded=0;orthogonalLoop=1;jettySize=auto;html=1;exitX=0.25;exitY=1;exitDx=0;exitDy=0;entryX=0.5;entryY=0;entryDx=0;entryDy=0;strokeColor=default;strokeWidth=2;align=center;verticalAlign=middle;fontFamily=Helvetica;fontSize=12;fontColor=default;fontStyle=1;labelBackgroundColor=default;horizontal=1;startArrow=block;startFill=0;startSize=12;endArrow=none;endFill=1;endSize=12;targetPerimeterSpacing=0;curved=0;" parent="1" source="Y01jiLZtxqPpPeRmWfsf-93" target="Y01jiLZtxqPpPeRmWfsf-96" edge="1">
                    <mxGeometry relative="1" as="geometry"/>
                </mxCell>
                <mxCell id="Y01jiLZtxqPpPeRmWfsf-108" style="edgeStyle=orthogonalEdgeStyle;shape=connector;rounded=0;orthogonalLoop=1;jettySize=auto;html=1;exitX=0.5;exitY=1;exitDx=0;exitDy=0;entryX=0.5;entryY=0;entryDx=0;entryDy=0;strokeColor=default;strokeWidth=2;align=center;verticalAlign=middle;fontFamily=Helvetica;fontSize=12;fontColor=default;fontStyle=1;labelBackgroundColor=default;horizontal=1;startArrow=block;startFill=0;startSize=12;endArrow=none;endFill=1;endSize=12;targetPerimeterSpacing=0;curved=0;" parent="1" source="Y01jiLZtxqPpPeRmWfsf-93" target="Y01jiLZtxqPpPeRmWfsf-99" edge="1">
                    <mxGeometry relative="1" as="geometry"/>
                </mxCell>
                <mxCell id="Y01jiLZtxqPpPeRmWfsf-109" style="edgeStyle=orthogonalEdgeStyle;shape=connector;rounded=0;orthogonalLoop=1;jettySize=auto;html=1;exitX=0.75;exitY=1;exitDx=0;exitDy=0;strokeColor=default;strokeWidth=2;align=center;verticalAlign=middle;fontFamily=Helvetica;fontSize=12;fontColor=default;fontStyle=1;labelBackgroundColor=default;horizontal=1;startArrow=block;startFill=0;startSize=12;endArrow=none;endFill=1;endSize=12;targetPerimeterSpacing=0;curved=0;" parent="1" source="Y01jiLZtxqPpPeRmWfsf-93" target="Y01jiLZtxqPpPeRmWfsf-102" edge="1">
                    <mxGeometry relative="1" as="geometry"/>
                </mxCell>
                <mxCell id="Y01jiLZtxqPpPeRmWfsf-93" value="interface - WaterAndFertilizer" style="swimlane;fontStyle=1;align=center;verticalAlign=top;childLayout=stackLayout;horizontal=1;startSize=26;horizontalStack=0;resizeParent=1;resizeParentMax=0;resizeLast=0;collapsible=1;marginBottom=0;whiteSpace=wrap;html=1;fillColor=#cce5ff;strokeColor=#36393d;rounded=1;spacingLeft=4;spacingRight=4;fontFamily=Helvetica;fontSize=12;" parent="1" vertex="1">
                    <mxGeometry x="970" y="1225" width="230" height="70" as="geometry"/>
                </mxCell>
                <mxCell id="Y01jiLZtxqPpPeRmWfsf-94" value="" style="line;strokeWidth=1;fillColor=none;align=left;verticalAlign=middle;spacingTop=-1;spacingLeft=3;spacingRight=3;rotatable=0;labelPosition=right;points=[];portConstraint=eastwest;strokeColor=inherit;rounded=0;fontFamily=Helvetica;fontSize=12;fontColor=default;" parent="Y01jiLZtxqPpPeRmWfsf-93" vertex="1">
                    <mxGeometry y="26" width="230" height="8" as="geometry"/>
                </mxCell>
                <mxCell id="Y01jiLZtxqPpPeRmWfsf-95" value="&lt;div&gt;+waterPlant ()::void&lt;/div&gt;&lt;div&gt;+addFertilizer ()::void&lt;/div&gt;" style="text;align=left;verticalAlign=top;spacingLeft=4;spacingRight=4;overflow=hidden;rotatable=0;points=[[0,0.5],[1,0.5]];portConstraint=eastwest;whiteSpace=wrap;html=1;fillColor=#f9f7ed;strokeColor=#36393d;rounded=0;fontFamily=Helvetica;fontSize=12;fontColor=default;" parent="Y01jiLZtxqPpPeRmWfsf-93" vertex="1">
                    <mxGeometry y="34" width="230" height="36" as="geometry"/>
                </mxCell>
                <mxCell id="Y01jiLZtxqPpPeRmWfsf-96" value="GreenPlantFertilizer" style="swimlane;fontStyle=1;align=center;verticalAlign=top;childLayout=stackLayout;horizontal=1;startSize=26;horizontalStack=0;resizeParent=1;resizeParentMax=0;resizeLast=0;collapsible=1;marginBottom=0;whiteSpace=wrap;html=1;fillColor=#cce5ff;strokeColor=#36393d;rounded=1;spacingLeft=4;spacingRight=4;fontFamily=Helvetica;fontSize=12;" parent="1" vertex="1">
                    <mxGeometry x="720" y="1404" width="230" height="70" as="geometry"/>
                </mxCell>
                <mxCell id="Y01jiLZtxqPpPeRmWfsf-97" value="" style="line;strokeWidth=1;fillColor=none;align=left;verticalAlign=middle;spacingTop=-1;spacingLeft=3;spacingRight=3;rotatable=0;labelPosition=right;points=[];portConstraint=eastwest;strokeColor=inherit;rounded=0;fontFamily=Helvetica;fontSize=12;fontColor=default;" parent="Y01jiLZtxqPpPeRmWfsf-96" vertex="1">
                    <mxGeometry y="26" width="230" height="8" as="geometry"/>
                </mxCell>
                <mxCell id="Y01jiLZtxqPpPeRmWfsf-98" value="&lt;div&gt;+waterPlant ()::void&lt;/div&gt;&lt;div&gt;+addFertilizer ()::void&lt;/div&gt;" style="text;align=left;verticalAlign=top;spacingLeft=4;spacingRight=4;overflow=hidden;rotatable=0;points=[[0,0.5],[1,0.5]];portConstraint=eastwest;whiteSpace=wrap;html=1;fillColor=#f9f7ed;strokeColor=#36393d;rounded=0;fontFamily=Helvetica;fontSize=12;fontColor=default;" parent="Y01jiLZtxqPpPeRmWfsf-96" vertex="1">
                    <mxGeometry y="34" width="230" height="36" as="geometry"/>
                </mxCell>
                <mxCell id="Y01jiLZtxqPpPeRmWfsf-99" value="SucculentFertilizer" style="swimlane;fontStyle=1;align=center;verticalAlign=top;childLayout=stackLayout;horizontal=1;startSize=26;horizontalStack=0;resizeParent=1;resizeParentMax=0;resizeLast=0;collapsible=1;marginBottom=0;whiteSpace=wrap;html=1;fillColor=#cce5ff;strokeColor=#36393d;rounded=1;spacingLeft=4;spacingRight=4;fontFamily=Helvetica;fontSize=12;" parent="1" vertex="1">
                    <mxGeometry x="970" y="1404" width="230" height="70" as="geometry"/>
                </mxCell>
                <mxCell id="Y01jiLZtxqPpPeRmWfsf-100" value="" style="line;strokeWidth=1;fillColor=none;align=left;verticalAlign=middle;spacingTop=-1;spacingLeft=3;spacingRight=3;rotatable=0;labelPosition=right;points=[];portConstraint=eastwest;strokeColor=inherit;rounded=0;fontFamily=Helvetica;fontSize=12;fontColor=default;" parent="Y01jiLZtxqPpPeRmWfsf-99" vertex="1">
                    <mxGeometry y="26" width="230" height="8" as="geometry"/>
                </mxCell>
                <mxCell id="Y01jiLZtxqPpPeRmWfsf-101" value="&lt;div&gt;+waterPlant ()::void&lt;/div&gt;&lt;div&gt;+addFertilizer ()::void&lt;/div&gt;" style="text;align=left;verticalAlign=top;spacingLeft=4;spacingRight=4;overflow=hidden;rotatable=0;points=[[0,0.5],[1,0.5]];portConstraint=eastwest;whiteSpace=wrap;html=1;fillColor=#f9f7ed;strokeColor=#36393d;rounded=0;fontFamily=Helvetica;fontSize=12;fontColor=default;" parent="Y01jiLZtxqPpPeRmWfsf-99" vertex="1">
                    <mxGeometry y="34" width="230" height="36" as="geometry"/>
                </mxCell>
                <mxCell id="Y01jiLZtxqPpPeRmWfsf-102" value="FlowerFertilizer" style="swimlane;fontStyle=1;align=center;verticalAlign=top;childLayout=stackLayout;horizontal=1;startSize=26;horizontalStack=0;resizeParent=1;resizeParentMax=0;resizeLast=0;collapsible=1;marginBottom=0;whiteSpace=wrap;html=1;fillColor=#cce5ff;strokeColor=#36393d;rounded=1;spacingLeft=4;spacingRight=4;fontFamily=Helvetica;fontSize=12;" parent="1" vertex="1">
                    <mxGeometry x="1220" y="1404" width="230" height="70" as="geometry"/>
                </mxCell>
                <mxCell id="Y01jiLZtxqPpPeRmWfsf-103" value="" style="line;strokeWidth=1;fillColor=none;align=left;verticalAlign=middle;spacingTop=-1;spacingLeft=3;spacingRight=3;rotatable=0;labelPosition=right;points=[];portConstraint=eastwest;strokeColor=inherit;rounded=0;fontFamily=Helvetica;fontSize=12;fontColor=default;" parent="Y01jiLZtxqPpPeRmWfsf-102" vertex="1">
                    <mxGeometry y="26" width="230" height="8" as="geometry"/>
                </mxCell>
                <mxCell id="Y01jiLZtxqPpPeRmWfsf-104" value="&lt;div&gt;+waterPlant ()::void&lt;/div&gt;&lt;div&gt;+addFertilizer ()::void&lt;/div&gt;" style="text;align=left;verticalAlign=top;spacingLeft=4;spacingRight=4;overflow=hidden;rotatable=0;points=[[0,0.5],[1,0.5]];portConstraint=eastwest;whiteSpace=wrap;html=1;fillColor=#f9f7ed;strokeColor=#36393d;rounded=0;fontFamily=Helvetica;fontSize=12;fontColor=default;" parent="Y01jiLZtxqPpPeRmWfsf-102" vertex="1">
                    <mxGeometry y="34" width="230" height="36" as="geometry"/>
                </mxCell>
                <mxCell id="22" style="edgeStyle=orthogonalEdgeStyle;html=1;exitX=1;exitY=0.5;exitDx=0;exitDy=0;entryX=0.5;entryY=0;entryDx=0;entryDy=0;rounded=0;strokeColor=default;strokeWidth=2;endArrow=none;endFill=0;startArrow=block;startFill=0;endSize=13;startSize=12;" parent="1" source="13" target="19" edge="1">
                    <mxGeometry relative="1" as="geometry"/>
                </mxCell>
                <mxCell id="23" style="edgeStyle=orthogonalEdgeStyle;shape=connector;rounded=0;html=1;exitX=1;exitY=0.25;exitDx=0;exitDy=0;entryX=0.5;entryY=1;entryDx=0;entryDy=0;strokeColor=default;strokeWidth=2;align=center;verticalAlign=middle;fontFamily=Helvetica;fontSize=11;fontColor=default;labelBackgroundColor=default;startArrow=block;startFill=0;startSize=12;endArrow=none;endFill=0;endSize=13;" parent="1" source="10" target="14" edge="1">
                    <mxGeometry relative="1" as="geometry"/>
                </mxCell>
                <mxCell id="10" value="interface LocationFactory" style="swimlane;fontStyle=1;align=center;verticalAlign=top;childLayout=stackLayout;horizontal=1;startSize=26;horizontalStack=0;resizeParent=1;resizeParentMax=0;resizeLast=0;collapsible=1;marginBottom=0;whiteSpace=wrap;html=1;fillColor=#60a917;fontColor=#ffffff;strokeColor=#2D7600;rounded=1;" parent="1" vertex="1">
                    <mxGeometry x="576" y="-194" width="244" height="66" as="geometry"/>
                </mxCell>
                <mxCell id="12" value="" style="line;strokeWidth=1;fillColor=none;align=left;verticalAlign=middle;spacingTop=-1;spacingLeft=3;spacingRight=3;rotatable=0;labelPosition=right;points=[];portConstraint=eastwest;strokeColor=inherit;" parent="10" vertex="1">
                    <mxGeometry y="26" width="244" height="8" as="geometry"/>
                </mxCell>
                <mxCell id="13" value="&lt;div&gt;+ Location createLocation(String, int)&lt;/div&gt;" style="text;align=left;verticalAlign=top;spacingLeft=4;spacingRight=4;overflow=hidden;rotatable=0;points=[[0,0.5],[1,0.5]];portConstraint=eastwest;whiteSpace=wrap;html=1;fillColor=#f9f7ed;strokeColor=#36393d;rounded=0;" parent="10" vertex="1">
                    <mxGeometry y="34" width="244" height="32" as="geometry"/>
                </mxCell>
                <mxCell id="14" value="OutdoorCreator" style="swimlane;fontStyle=1;align=center;verticalAlign=top;childLayout=stackLayout;horizontal=1;startSize=26;horizontalStack=0;resizeParent=1;resizeParentMax=0;resizeLast=0;collapsible=1;marginBottom=0;whiteSpace=wrap;html=1;fillColor=#60a917;fontColor=#ffffff;strokeColor=#2D7600;rounded=1;" parent="1" vertex="1">
                    <mxGeometry x="918" y="-314" width="230" height="65" as="geometry"/>
                </mxCell>
                <mxCell id="16" value="" style="line;strokeWidth=1;fillColor=none;align=left;verticalAlign=middle;spacingTop=-1;spacingLeft=3;spacingRight=3;rotatable=0;labelPosition=right;points=[];portConstraint=eastwest;strokeColor=inherit;" parent="14" vertex="1">
                    <mxGeometry y="26" width="230" height="8" as="geometry"/>
                </mxCell>
                <mxCell id="17" value="&lt;div&gt;&lt;div&gt;&lt;div&gt;&lt;div&gt;&lt;div&gt;+&amp;nbsp; Location createLocation(String, Int)&lt;/div&gt;&lt;/div&gt;&lt;/div&gt;&lt;/div&gt;&lt;/div&gt;" style="text;align=left;verticalAlign=top;spacingLeft=4;spacingRight=4;overflow=hidden;rotatable=0;points=[[0,0.5],[1,0.5]];portConstraint=eastwest;whiteSpace=wrap;html=1;fillColor=#f9f7ed;strokeColor=#36393d;rounded=0;" parent="14" vertex="1">
                    <mxGeometry y="34" width="230" height="31" as="geometry"/>
                </mxCell>
                <mxCell id="19" value="IndoorCreator" style="swimlane;fontStyle=1;align=center;verticalAlign=top;childLayout=stackLayout;horizontal=1;startSize=26;horizontalStack=0;resizeParent=1;resizeParentMax=0;resizeLast=0;collapsible=1;marginBottom=0;whiteSpace=wrap;html=1;fillColor=#60a917;fontColor=#ffffff;strokeColor=#2D7600;rounded=1;" parent="1" vertex="1">
                    <mxGeometry x="912" y="-62" width="230" height="65" as="geometry"/>
                </mxCell>
                <mxCell id="20" value="" style="line;strokeWidth=1;fillColor=none;align=left;verticalAlign=middle;spacingTop=-1;spacingLeft=3;spacingRight=3;rotatable=0;labelPosition=right;points=[];portConstraint=eastwest;strokeColor=inherit;" parent="19" vertex="1">
                    <mxGeometry y="26" width="230" height="8" as="geometry"/>
                </mxCell>
                <mxCell id="21" value="&lt;div&gt;&lt;div&gt;&lt;div&gt;&lt;div&gt;&lt;div&gt;+&amp;nbsp; Location createLocation(String, Int)&lt;/div&gt;&lt;/div&gt;&lt;/div&gt;&lt;/div&gt;&lt;/div&gt;" style="text;align=left;verticalAlign=top;spacingLeft=4;spacingRight=4;overflow=hidden;rotatable=0;points=[[0,0.5],[1,0.5]];portConstraint=eastwest;whiteSpace=wrap;html=1;fillColor=#f9f7ed;strokeColor=#36393d;rounded=0;" parent="19" vertex="1">
                    <mxGeometry y="34" width="230" height="31" as="geometry"/>
                </mxCell>
                <mxCell id="32" style="edgeStyle=orthogonalEdgeStyle;shape=connector;rounded=0;html=1;exitX=1;exitY=0.5;exitDx=0;exitDy=0;entryX=0.5;entryY=0;entryDx=0;entryDy=0;strokeColor=default;strokeWidth=2;align=center;verticalAlign=middle;fontFamily=Helvetica;fontSize=11;fontColor=default;labelBackgroundColor=default;startArrow=block;startFill=0;startSize=12;endArrow=none;endFill=0;endSize=13;" parent="1" source="YPLfKWgZtxqnr_miqKOz-13" target="Y01jiLZtxqPpPeRmWfsf-1" edge="1">
                    <mxGeometry relative="1" as="geometry"/>
                </mxCell>
                <mxCell id="33" value="&lt;font style=&quot;font-size: 21px;&quot;&gt;strategy&lt;/font&gt;" style="text;html=1;align=center;verticalAlign=middle;whiteSpace=wrap;rounded=0;" parent="1" vertex="1">
                    <mxGeometry x="895" y="1038" width="163" height="43" as="geometry"/>
                </mxCell>
                <mxCell id="36" value="&lt;font style=&quot;font-size: 21px;&quot;&gt;Factory&lt;/font&gt;" style="text;html=1;align=center;verticalAlign=middle;whiteSpace=wrap;rounded=0;" parent="1" vertex="1">
                    <mxGeometry x="581" y="-330" width="163" height="43" as="geometry"/>
                </mxCell>
                <mxCell id="37" value="&lt;font style=&quot;font-size: 21px;&quot;&gt;Adapter&lt;/font&gt;" style="text;html=1;align=center;verticalAlign=middle;whiteSpace=wrap;rounded=0;" parent="1" vertex="1">
                    <mxGeometry x="-670" y="499" width="163" height="43" as="geometry"/>
                </mxCell>
                <mxCell id="39" value="&lt;font style=&quot;font-size: 21px;&quot;&gt;Composite&lt;/font&gt;" style="text;html=1;align=center;verticalAlign=middle;whiteSpace=wrap;rounded=0;" parent="1" vertex="1">
                    <mxGeometry x="75" y="-24" width="163" height="43" as="geometry"/>
                </mxCell>
                <mxCell id="40" style="edgeStyle=orthogonalEdgeStyle;shape=connector;rounded=0;html=1;strokeColor=default;strokeWidth=2;align=center;verticalAlign=middle;fontFamily=Helvetica;fontSize=11;fontColor=default;labelBackgroundColor=default;startArrow=diamondThin;startFill=0;startSize=12;endArrow=none;endFill=0;endSize=13;jumpStyle=none;flowAnimation=0;shadow=0;exitX=0.75;exitY=0;exitDx=0;exitDy=0;entryX=1;entryY=0.25;entryDx=0;entryDy=0;" parent="1" source="Y01jiLZtxqPpPeRmWfsf-39" target="Y01jiLZtxqPpPeRmWfsf-39" edge="1">
                    <mxGeometry relative="1" as="geometry">
                        <mxPoint x="970" y="679" as="sourcePoint"/>
                        <mxPoint x="1092" y="725" as="targetPoint"/>
                        <Array as="points">
                            <mxPoint x="955" y="605"/>
                            <mxPoint x="1133" y="605"/>
                            <mxPoint x="1133" y="747"/>
                        </Array>
                    </mxGeometry>
                </mxCell>
                <mxCell id="42" value="nextStep" style="edgeLabel;html=1;align=center;verticalAlign=middle;resizable=0;points=[];rounded=0;fontFamily=Helvetica;fontSize=11;fontColor=default;labelBackgroundColor=default;fillColor=none;gradientColor=none;" parent="40" vertex="1" connectable="0">
                    <mxGeometry x="-0.1926" y="-3" relative="1" as="geometry">
                        <mxPoint as="offset"/>
                    </mxGeometry>
                </mxCell>
                <mxCell id="43" value="&lt;font style=&quot;font-size: 21px;&quot;&gt;Chain of Responsibility&lt;/font&gt;" style="text;html=1;align=center;verticalAlign=middle;whiteSpace=wrap;rounded=0;" parent="1" vertex="1">
                    <mxGeometry x="1173" y="774" width="163" height="43" as="geometry"/>
                </mxCell>
                <mxCell id="51" style="edgeStyle=orthogonalEdgeStyle;html=1;exitX=1;exitY=0.75;exitDx=0;exitDy=0;rounded=0;strokeColor=default;strokeWidth=2;align=center;verticalAlign=middle;fontFamily=Helvetica;fontSize=11;fontColor=default;labelBackgroundColor=default;startArrow=classicThin;startFill=1;startSize=12;endArrow=classicThin;endFill=1;endSize=12;" edge="1" parent="1" source="44" target="50">
                    <mxGeometry relative="1" as="geometry"/>
                </mxCell>
                <mxCell id="52" value="add, remove, read" style="edgeLabel;html=1;align=center;verticalAlign=middle;resizable=0;points=[];" vertex="1" connectable="0" parent="51">
                    <mxGeometry x="0.088" y="5" relative="1" as="geometry">
                        <mxPoint y="1" as="offset"/>
                    </mxGeometry>
                </mxCell>
                <mxCell id="44" value="Collection (&amp;lt;T&amp;gt; extends House)" style="swimlane;fontStyle=1;align=center;verticalAlign=top;childLayout=stackLayout;horizontal=1;startSize=26;horizontalStack=0;resizeParent=1;resizeParentMax=0;resizeLast=0;collapsible=1;marginBottom=0;whiteSpace=wrap;html=1;fillColor=#ffcc99;strokeColor=#36393d;rounded=1;" parent="1" vertex="1">
                    <mxGeometry x="979" y="148" width="230" height="186" as="geometry"/>
                </mxCell>
                <mxCell id="45" value="&lt;div&gt;- static final Logger logger&lt;/div&gt;&lt;div&gt;- fnal String filename&lt;/div&gt;&lt;div&gt;- final Path path&lt;/div&gt;" style="text;align=left;verticalAlign=top;spacingLeft=4;spacingRight=4;overflow=hidden;rotatable=0;points=[[0,0.5],[1,0.5]];portConstraint=eastwest;whiteSpace=wrap;html=1;fillColor=#f9f7ed;strokeColor=#36393d;" parent="44" vertex="1">
                    <mxGeometry y="26" width="230" height="60" as="geometry"/>
                </mxCell>
                <mxCell id="46" value="" style="line;strokeWidth=1;fillColor=none;align=left;verticalAlign=middle;spacingTop=-1;spacingLeft=3;spacingRight=3;rotatable=0;labelPosition=right;points=[];portConstraint=eastwest;strokeColor=inherit;" parent="44" vertex="1">
                    <mxGeometry y="86" width="230" height="8" as="geometry"/>
                </mxCell>
                <mxCell id="47" value="&lt;div&gt;+ Path getPath()&lt;/div&gt;&lt;div&gt;+ String getFilename()&lt;/div&gt;&lt;div&gt;+ void addElement(T element)&lt;/div&gt;&lt;div&gt;+ void removeElement(T element)&lt;/div&gt;&lt;div&gt;+ void displayElements()&lt;/div&gt;" style="text;align=left;verticalAlign=top;spacingLeft=4;spacingRight=4;overflow=hidden;rotatable=0;points=[[0,0.5],[1,0.5]];portConstraint=eastwest;whiteSpace=wrap;html=1;fillColor=#f9f7ed;strokeColor=#36393d;rounded=0;" parent="44" vertex="1">
                    <mxGeometry y="94" width="230" height="92" as="geometry"/>
                </mxCell>
                <mxCell id="50" value="" style="sketch=0;pointerEvents=1;shadow=0;dashed=0;html=1;strokeColor=none;fillColor=#505050;labelPosition=center;verticalLabelPosition=bottom;verticalAlign=top;outlineConnect=0;align=center;shape=mxgraph.office.concepts.documents;" vertex="1" parent="1">
                    <mxGeometry x="1424" y="129" width="119.26" height="140" as="geometry"/>
                </mxCell>
            </root>
        </mxGraphModel>
    </diagram>
</mxfile>